<svg width="244" height="96" viewBox="0 0 244 96" fill="none" xmlns="http://www.w3.org/2000/svg">
<rect width="44.8377" height="44.8377" rx="4.83019" transform="matrix(-0.866007 0.500033 -3.76314e-05 1 51.5815 6.75)" fill="#111113"/>
<rect width="44.8377" height="44.8377" rx="4.83019" transform="matrix(-0.866007 0.500033 -3.76314e-05 1 67.1827 14.7267)" fill="#0062D5"/>
<rect width="44.2916" height="44.2916" rx="4.83019" transform="matrix(0.866025 -0.5 2.20305e-08 1 44.8924 45.2425)" fill="#111113"/>
<path d="M102.272 72V27.2H121.344C123.904 27.2 126.251 27.84 128.384 29.12C130.56 30.3573 132.288 32.064 133.568 34.24C134.848 36.3733 135.488 38.784 135.488 41.472C135.488 43.904 134.848 46.1653 133.568 48.256C132.288 50.3467 130.581 52.032 128.448 53.312C126.315 54.5493 123.947 55.168 121.344 55.168H109.184V72H102.272ZM128.896 72L117.504 51.776L124.608 50.176L137.28 72.064L128.896 72ZM109.184 48.512H121.984C123.221 48.512 124.331 48.2133 125.312 47.616C126.293 46.976 127.061 46.1227 127.616 45.056C128.171 43.9467 128.448 42.7307 128.448 41.408C128.448 39.9147 128.085 38.6133 127.36 37.504C126.677 36.352 125.696 35.456 124.416 34.816C123.179 34.176 121.771 33.856 120.192 33.856H109.184V48.512ZM157.618 72.64C154.162 72.64 151.09 71.9147 148.402 70.464C145.757 68.9707 143.666 66.944 142.13 64.384C140.637 61.824 139.89 58.88 139.89 55.552C139.89 52.9067 140.317 50.496 141.17 48.32C142.023 46.144 143.197 44.2667 144.69 42.688C146.226 41.0667 148.039 39.8293 150.13 38.976C152.263 38.08 154.567 37.632 157.042 37.632C159.218 37.632 161.245 38.0587 163.122 38.912C164.999 39.7227 166.621 40.8533 167.986 42.304C169.394 43.7547 170.461 45.4827 171.186 47.488C171.954 49.4507 172.317 51.6053 172.274 53.952L172.21 56.768H144.754L143.282 51.52H166.514L165.554 52.608V51.072C165.426 49.664 164.957 48.4053 164.146 47.296C163.335 46.1867 162.311 45.312 161.074 44.672C159.837 44.032 158.493 43.712 157.042 43.712C154.738 43.712 152.797 44.16 151.218 45.056C149.639 45.9093 148.445 47.1893 147.634 48.896C146.823 50.56 146.418 52.6293 146.418 55.104C146.418 57.4507 146.909 59.4987 147.89 61.248C148.871 62.9547 150.258 64.2773 152.05 65.216C153.842 66.1547 155.911 66.624 158.258 66.624C159.922 66.624 161.458 66.3467 162.866 65.792C164.317 65.2373 165.874 64.2347 167.538 62.784L170.866 67.456C169.842 68.48 168.583 69.376 167.09 70.144C165.639 70.912 164.082 71.5307 162.418 72C160.797 72.4267 159.197 72.64 157.618 72.64ZM177.646 72V24.64H184.238V72H177.646ZM195.633 72V29.824H202.225V72H195.633ZM188.657 44.8V38.4H210.033V44.8H188.657ZM233.707 72V50.112C233.707 48.2347 233.024 46.72 231.659 45.568C230.336 44.3733 228.651 43.776 226.603 43.776C224.726 43.776 223.019 44.16 221.483 44.928C219.99 45.696 218.624 46.8693 217.387 48.448L213.099 44.16C215.104 41.984 217.259 40.3627 219.563 39.296C221.91 38.2293 224.427 37.696 227.115 37.696C229.675 37.696 231.894 38.1227 233.771 38.976C235.648 39.8293 237.099 41.088 238.123 42.752C239.147 44.3733 239.659 46.3573 239.659 48.704V72H233.707ZM223.659 72.64C221.483 72.64 219.542 72.2133 217.835 71.36C216.128 70.5067 214.763 69.3333 213.739 67.84C212.758 66.304 212.267 64.512 212.267 62.464C212.267 60.672 212.587 59.0933 213.227 57.728C213.867 56.3627 214.806 55.232 216.043 54.336C217.323 53.44 218.902 52.7573 220.779 52.288C222.699 51.8187 224.896 51.584 227.371 51.584H236.715L236.139 56.832H226.539C225.259 56.832 224.107 56.96 223.083 57.216C222.102 57.4293 221.248 57.792 220.523 58.304C219.84 58.7733 219.328 59.3493 218.987 60.032C218.646 60.672 218.475 61.44 218.475 62.336C218.475 63.2747 218.71 64.1067 219.179 64.832C219.648 65.5147 220.288 66.048 221.099 66.432C221.91 66.816 222.848 67.008 223.915 67.008C225.451 67.008 226.902 66.752 228.267 66.24C229.675 65.6853 230.912 64.9387 231.979 64C233.088 63.0613 233.942 62.016 234.539 60.864L236.075 65.152C235.179 66.6453 234.07 67.9467 232.747 69.056C231.424 70.1653 229.995 71.04 228.459 71.68C226.923 72.32 225.323 72.64 223.659 72.64Z" fill="#111113"/>
</svg>
